PathFileType	4	(X/Y/Z)	T1_P1_Vision_NoMovement_4_0-684.trc
DataRate	CameraRate	NumFrames	NumMarkers	Units	OrigDataRate	OrigDataStartFrame	OrigNumFrames
60	60	7	27	m	60	427	684
Frame#	Time	RHip			RKnee			RAnkle			RBigToe			RSmallToe			RHeel			LHip			LKnee			LAnkle			LBigToe			LSmallToe			LHeel			Neck			Head			Nose			RShoulder			RElbow			RWrist			RThumb			RIndex			RPinky			LShoulder			LElbow			LWrist			LThumb			LIndex			LPinky		
		X1	Y1	Z1	X2	Y2	Z2	X3	Y3	Z3	X4	Y4	Z4	X5	Y5	Z5	X6	Y6	Z6	X7	Y7	Z7	X8	Y8	Z8	X9	Y9	Z9	X10	Y10	Z10	X11	Y11	Z11	X12	Y12	Z12	X13	Y13	Z13	X14	Y14	Z14	X15	Y15	Z15	X16	Y16	Z16	X17	Y17	Z17	X18	Y18	Z18	X19	Y19	Z19	X20	Y20	Z20	X21	Y21	Z21	X22	Y22	Z22	X23	Y23	Z23	X24	Y24	Z24	X25	Y25	Z25	X26	Y26	Z26	X27	Y27	Z27
428	7.133333333333334	-66.50578306959812	3779.675741289735	-540.5592472258714	277.8197179735198	3909.071510410528	-502.07398108900395	633.500164975269	4155.065155387156	-526.4245267319478	704.0713041431071	4061.15561329457	-467.21044796969875	695.4423805810561	4022.1141970002195	-502.1239842854208	679.8290877841234	4209.064460730146	-535.0888706006326	-107.94385625157284	3881.9279849356512	-348.6407647758941	235.92619879572584	3951.246667120856	-350.9058870471469	618.7422535321102	4236.602266307862	-458.30663455771406	662.9367307144507	3988.3903722568384	-342.87899321531955	671.1907264500527	4120.182182022166	-343.678728566047	670.5711748705835	4315.323722594734	-496.3785880046802	-665.3349132534937	3665.9158567988125	-499.63129350078344	-908.9459510085629	3526.57001501768	-434.06699304919044	-776.66489776759	3559.9701291051238	-408.71424558639734	-557.0179923182601	3668.5410704800856	-664.2984922664217	-270.923005082316	3667.2518298265804	-679.8595931163328	-22.609955659304063	3651.23173796491	-599.8023748956821	85.54399819137268	3750.77501830438	-553.4675254361471	115.39897454666459	3753.3243750970255	-562.0962541092274	104.27185940782529	3700.6762518368982	-575.7128423341205	-612.209195745789	3776.4550848159	-378.0342721095166	-386.2422169602761	3983.0893210261834	-346.03690599804946	-125.96210556642379	3914.546838923273	-238.63697298319093	12.808355793107705	3872.784321329853	-274.4590437421555	26.055418528529263	3833.3428042625583	-201.96884524834627	0.6643555690624473	3974.525287552287	-215.63558226233224
429	7.15	-66.57423731077779	3782.6785372791896	-541.2642752204354	278.7218556179095	3909.433064708587	-502.03798125520257	635.6402534725836	4155.693833931816	-526.2133109484153	705.2013997324581	4059.432031229117	-465.7751994889628	696.2858296202614	4020.260517877346	-504.8243482986164	679.9993575966174	4206.773295573619	-534.5299177421617	-107.98362776090659	3881.822209057972	-348.5579597376907	233.78593441267338	3950.798971662391	-350.81650080928534	619.8223794851532	4245.460877746018	-460.2370472605179	663.1292834696243	3987.0941922993734	-341.84814480344414	670.9582039138826	4120.305688529425	-343.63802656929204	670.5408285166897	4315.500564511749	-496.1830081962008	-662.9478785746405	3667.2366096671144	-500.8581748825821	-907.5403251082702	3522.369996918705	-433.1094854137369	-777.6564538634381	3562.3679858146343	-410.6751225526905	-556.077958963295	3669.298256715133	-664.8133984475702	-270.1014440158446	3665.1515604609685	-677.6591606340759	-22.66589606429148	3651.213315936371	-599.7772418410153	85.72733348351503	3752.441023035669	-554.8771311737967	114.97661325675037	3749.1053533122063	-561.0601328494796	104.30444640300655	3702.7469051185913	-576.2817982233282	-612.2117560093972	3776.5040760864285	-378.09129864639465	-386.27728572849304	3983.5592946162687	-346.1212009922945	-125.85979091787554	3914.847731526293	-239.7161427441901	12.074930275885787	3873.4207070129796	-275.969310742783	26.061135400996278	3833.525831549704	-202.00920791673377	1.3017967260399355	3974.934382141266	-215.82593195092622
430	7.166666666666667	-66.69304695843645	3781.7449136386035	-540.0687188954784	278.9779263814931	3909.9150742200745	-502.48573072426694	638.5460024596969	4156.005100104202	-525.9970126639431	705.6908974959321	4054.6299340436913	-463.60450543242854	696.0407279687639	4010.3935670081605	-505.5044734612653	680.6905590422992	4201.6795651046405	-533.3788100588674	-107.98254262479375	3882.295330420623	-348.8877596499663	231.52482341058095	3950.504809146339	-350.94940057834145	619.9523226504633	4249.693047827193	-458.24318105315746	663.2635404105699	3983.7086744667254	-340.97821553042877	670.2011741410756	4120.2952288015185	-343.4948235793163	670.1661820975212	4314.3210903948575	-494.68380488565685	-662.2472605775615	3667.7653507983764	-502.04627604307217	-906.9828237388308	3518.5639843342124	-432.31519218677397	-777.2977712373674	3565.8106210137903	-413.09547778246827	-555.0296557166967	3666.9024485990694	-662.6757975495696	-269.1116246633517	3659.7825842669417	-672.6439282692918	-22.77249211428297	3651.163188456055	-599.7539645826589	85.99656758026308	3755.1644104168954	-557.1031214891452	114.37379811603877	3746.819770269137	-560.5400696041081	104.35183868243995	3706.910662111641	-577.305568274671	-612.2183221973429	3776.5831982538843	-378.1588190724783	-386.33040860321324	3984.3437418334943	-346.2657092707472	-125.90849454700628	3918.5894840716546	-240.8893219123883	11.655129049010513	3873.6630514488	-276.77043575179437	26.062417735149577	3832.941427284699	-201.92396225854517	2.5298087562373106	3975.851791064994	-216.19644708719443
431	7.183333333333334	-66.76088214185619	3779.5342947893087	-538.8782804249865	278.263404891381	3911.5068630212527	-504.1064794003666	640.5010707939593	4155.501323954762	-526.4213172437051	704.8033538054657	4050.086874301889	-463.1589374172096	694.5299399914061	3997.4185475019713	-503.69217862695206	681.6077199863327	4197.921117879166	-533.0954709725588	-107.92250392562659	3884.170577879173	-350.2160031518394	230.56153812483407	3950.3940037993075	-351.0524245184091	619.1830861713346	4248.73267388592	-453.93718859498665	662.6886101248982	3978.501149966085	-340.20866183774575	668.9602292308109	4119.935996732532	-343.27078932188005	669.3668358719721	4311.263482059784	-492.03134426693146	-663.1155540699122	3667.4438015237824	-502.94402177287117	-907.3370134226881	3516.5858728235207	-431.9641656676438	-776.5983498328319	3568.9268513899824	-415.1991945845283	-554.734313395264	3663.331617464539	-659.6629496148676	-268.61698841750143	3655.17837001091	-668.4322500614873	-22.89567586455724	3651.109525367293	-599.7454312093014	86.15325938026089	3756.6780666838736	-558.30839999914	114.21968077859601	3748.386945199508	-560.9831760521421	104.36602969050962	3709.751142991323	-577.9755109502252	-612.2203153525505	3776.65421887936	-378.21475280002477	-386.3147519862597	3984.403051875877	-346.2994399159292	-126.02425266837987	3920.893239523508	-240.74418460817319	12.089203272811403	3872.024391793439	-275.2397141957415	26.0968823138559	3832.472680293372	-201.82539388350335	3.6583350871843785	3976.736591364761	-216.52266794661244
432	7.2	-66.70146552777574	3777.452872087398	-538.9214626558787	277.75713435327816	3913.6009600012785	-506.03006136838184	640.6544741013527	4154.365590658799	-527.9815020292536	703.146703721025	4049.0743388011315	-464.6228000629242	692.6560779855486	3986.288799026681	-500.94373492829413	682.1974521375532	4196.033231781229	-534.1832612166952	-107.83297544955457	3887.0904311977233	-352.2970371318032	231.4926227205918	3950.604911307958	-350.9495635212278	618.048128680867	4244.8146721178455	-449.2885944519461	661.3539949371722	3972.7642499949125	-340.07757481341577	667.9609358957747	4118.81133834155	-343.0249051760712	668.4786159126552	4307.650873071801	-489.2778772881651	-664.2672766695783	3666.9689175600606	-503.85164062449644	-907.752345518344	3516.2516608772326	-431.94395226041587	-776.2267301496215	3570.464144634825	-416.2267826098374	-555.5073130032079	3659.7159284775526	-656.7791862509096	-268.94698395121577	3653.3652248049148	-666.808548192999	-22.854016207215345	3651.152135105801	-599.752296058564	86.05645104957406	3755.363365909619	-557.2044140378315	115.3782656752314	3753.744501195612	-562.4312301790774	104.37292451635801	3710.668022780954	-578.1779166142121	-612.209569596248	3776.68352299833	-378.249165745207	-386.03571396654417	3981.4100054788587	-345.7798734107248	-126.0640977981087	3918.584718767241	-239.3237757196241	13.065325958397212	3867.720832860437	-271.56642211581993	26.187969477219994	3832.2770350903484	-201.7449314676699	4.164743681940118	3977.1537932490646	-216.64614777661427
433	7.216666666666667	-66.52409096032686	3776.1194397828003	-540.2236126736256	279.2680319865194	3915.058760485549	-506.9807155918745	639.8604029043406	4153.345075407079	-530.1319495304407	700.9434069258933	4049.539364793005	-464.71480822045686	690.9405770226973	3977.6048898337353	-497.7775956986182	682.301134007623	4194.303726796321	-535.6623010321766	-107.78659041224527	3888.570945107673	-353.3895439205124	233.58332093452466	3950.9030516689922	-350.68230381527457	617.531230633115	4242.534940865102	-447.24567849926325	660.3282836043652	3969.2104990704747	-340.88803852611113	667.4030313227544	4115.830708940275	-342.5346595125572	668.6206592693779	4308.201016759176	-489.5892433264445	-664.8739399592382	3666.7485243330057	-504.70260328360973	-907.3928118645349	3516.65974221241	-432.018702576468	-776.181760946036	3570.6875814611126	-416.3714905017507	-556.7803419950199	3655.956690619182	-653.865358515717	-269.90766407394256	3653.37301307334	-666.8932542253485	-22.26985890938875	3651.439468435721	-599.7334825449195	85.83038252996923	3752.6656856867357	-555.0071149442107	117.4249754063315	3760.3309763192774	-564.2438821945259	104.42091687386855	3710.5786484944297	-578.1466960477915	-612.1883195653379	3776.638000627155	-378.2455974659137	-385.3419374511383	3973.6462046649017	-344.35731943402544	-126.01487889297259	3913.983144963075	-237.8697697360995	13.92893800547935	3862.230742972669	-267.6275202048694	26.34294710477916	3834.9886757806335	-202.1497322035544	4.19023662298225	3977.228374055479	-216.63377816608437
434	7.233333333333333	-66.34771904040835	3777.1705750998544	-542.2057133905274	282.4346689920491	3915.7289871313633	-506.95510533730237	639.1450578499218	4152.807541870678	-531.5825142845583	697.9916953887964	4047.612256285161	-461.67992919375894	689.3111262186262	3970.3832791924387	-494.0812180324306	681.8589896221024	4191.248338645883	-535.813839036588	-107.82439842515046	3886.915216359603	-352.2849603895105	235.40387483288043	3951.039467809299	-350.4809034110657	618.0380441018375	4243.693449636674	-449.12999352180253	660.7643685478887	3969.866430456137	-342.02590320850027	667.4749135294543	4111.463997174877	-341.6938619735593	669.972818910796	4313.758461225752	-493.4480482373204	-664.978325109734	3666.690755015129	-505.14086517690714	-906.358635887198	3517.2565919245876	-432.11047966504077	-776.2533166803358	3570.4748939937685	-416.22561902692854	-557.7444447265871	3652.7197000560523	-651.3443176632643	-270.89222271034544	3653.6508942391933	-667.2687531754934	-20.877205529451057	3652.02997563336	-599.6332875090943	85.66680306029264	3750.7313400647035	-553.5143417056684	119.1478964461356	3765.501481169039	-565.6727898141498	104.52874750664759	3710.0528099404446	-578.0149499716026	-612.171661939363	3776.4647889258827	-378.15919087671654	-384.42318723274803	3963.382096233683	-342.4407132006577	-125.95423036847507	3910.584720883853	-237.11294954368884	14.127205401248546	3857.9174350638814	-264.75362464894073	26.50484835747693	3841.2991802076526	-203.1686648484885	4.070790088779875	3977.240347611899	-216.60750417355942
